<svg xmlns="http://www.w3.org/2000/svg" version="1.0" viewBox="0 0 726 726"><path fill="#18a058" d="M326 2c-12 4-20 12-23 24-2 4-2 9-2 24 0 14 0 18-2 19l-1 1-5 1-7 1-4 2h-3l-3 1a286 286 0 0 1-22 8c-1 0-7 2-11 5h-4l-11 6a187 187 0 0 0-20 11l-1 1-7 4-14-13c-13-13-17-16-27-19-7-2-22 1-29 6-5 4-44 43-46 47-6 10-8 25-4 32l2 4c0 2 6 8 17 20l12 12-3 5-3 7-2 2-2 3-2 4a207 207 0 0 0-10 21 300 300 0 0 0-20 59H49l-23 2c-12 3-23 16-25 28a426 426 0 0 0 2 71c4 11 11 18 22 22 5 2 8 2 25 2h20l1 5a217 217 0 0 1 3 15l13 34 40-40 40-39-1-5a247 247 0 0 1-1-63 214 214 0 0 1 36-87l5-6c9-11 25-28 38-37a215 215 0 0 1 60-31l6-1a151 151 0 0 1 18-5l6-1a201 201 0 0 1 225 159l1 6a189 189 0 0 1-5 92 208 208 0 0 1-74 103 206 206 0 0 1-117 38c-17 0-30-1-36-3a1287 1287 0 0 0-81 80l5 3 7 2 11 4 13 4 8 2c11 2 10 0 10 22a103 103 0 0 0 2 24l2 5c2 5 10 14 12 14l1 1 4 2 5 2 35 1c31 0 34 0 39-2l6-2 1-1c2 0 12-10 14-14 3-7 4-12 4-30v-20h3a328 328 0 0 0 88-36c10-6 9-7 23 8 14 14 18 17 27 19s17 1 27-3c4-3 44-42 48-48 8-11 9-26 2-39-1-2-8-10-16-17l-13-14 2-3a131 131 0 0 0 10-17 316 316 0 0 0 13-27l3-8a401 401 0 0 0 13-44c1-1 4-2 19-2 20 0 23 0 30-3l11-8 8-13 1-5v-69c-4-12-15-23-26-26h-22c-21-1-20 0-22-9l-3-12-2-8-1-2v-1l-1-2-3-7-2-7-1-4c-1-3-15-31-21-40l-6-10 14-14 16-18c7-15 4-30-7-42l-43-42a39 39 0 0 0-37-2l-19 17-13 12-4-2-2-1-1-1a227 227 0 0 0-65-30l-12-3-11-3-6-1V27l-3-6c-2-6-12-16-15-16l-1-1-6-2c-5-2-11-2-37-2-29 0-32 0-38 2z"/><path fill="#1e1e1e" d="M358 213h-10a94 94 0 0 0-14 2 169 169 0 0 0-56 24l-4 3-8 6-6 6a152 152 0 0 0-45 83l-1 6a206 206 0 0 0 2 51l1 5 3 9 2 7-103 104A6220 6220 0 0 0 7 635c-1 0-3 5-3 8l-1 3c-2 3-3 21-2 29a84 84 0 0 0 9 22 61 61 0 0 0 55 29c11-1 17-3 28-8 6-3 15-11 112-109l106-106 5 2 7 2 5 1c14 4 18 4 35 4a130 130 0 0 0 62-12l2-2a180 180 0 0 0 31-19 154 154 0 0 0 49-72v-2a157 157 0 0 0 4-71c-3-15-16-23-29-17-3 1-13 11-30 28l-31 30a50 50 0 0 1-73-11 49 49 0 0 1-2-51c3-6 8-12 33-37l30-32 2-9c0-6-3-11-7-15-4-3-18-6-28-7h-18z"/></svg>