<svg xmlns="http://www.w3.org/2000/svg" viewBox="0 0 512 512"><path fill="#7AA7D1" d="M262 485.2c-7.2 0-14.6.3-21.8-.2l-14-1.7c-106.5-14.5-192-99.9-200.9-208.6-1-11.7-1.7-21.5-1-33.6C31.4 126.2 124 32 238.6 24.1l11.4-.3c8 0 16.2-.3 24.2.3a233.4 233.4 0 0 1 128 51.4L417 88.3a226.7 226.7 0 0 1 59 94.4l4.4 14.5c5.8 21.9 8.3 45.6 7 68l-1 10.6a229 229 0 0 1-117 179.6l-14 7.5a223.4 223.4 0 0 1-93.3 22.3Zm-8.5-412.8A185 185 0 0 0 73 234.5c-3 26.4 1.8 58 10.9 82.7 20.6 55.5 70 99.4 127.4 113.7a182.9 182.9 0 0 0 227.2-163c1.3-15.5 0-31.1-3-46.4-16-81.5-82.4-142-165.6-148.8-5.4-.4-11-.3-16.3-.3Z"/><path fill="#7AA7D1" d="m153.2 310.1-20-25c7.6-1.3 15.8 0 23.5-.7v-6.7l-32.3.3c-1.1-.7-1.5-1.8-2.3-2.8l-6-7.3c-5.6-7-12.3-13-17.5-20.2 5.3-.9 6.6-1.2 12.5-1.2l18-.2c1-7.5-.5-5.5-7-5.5-10.2-.2-11.4 1.2-17.1-6.1l-7-9c-3.2-4-6.8-7.6-9.7-11.7-4.2-5.7 1.9-4.5 6.3-4.5h142.2c21 0 31.4 1.5 49 12.2V206c0-8.6.4-17-1.3-25.4-4.3-22-24-36.8-43.6-45-2.8-1.1-8.6-2-5.3-5.8A67.5 67.5 0 0 1 277 111c11.6-1.3 24 2.4 34.6 6.6a140.3 140.3 0 0 1 86.9 117.2c3.6 35.4-6.9 73.5-30.6 100.2-35.2 39.6-98.1 49.8-144.7 25.3-17.1-9-39.6-27.1-48.2-43.8-1.6-3-1-3-4.7-3l-9.8-.2c-1.6 0-4.3.6-5.5-1l-1.9-2.3Z"/></svg>