<?xml version="1.0" encoding="UTF-8"?>
<!-- Generated by Pixelmator Pro 3.5.7 -->
<svg width="460" height="460" viewBox="0 0 460 460" xmlns="http://www.w3.org/2000/svg">
    <g id="Agrupar">
        <path id="Traado" fill="#5856e0" fill-rule="evenodd" stroke="none" d="M 455.280701 230.182007 C 455.280701 354.406372 354.576965 455.110138 230.3526 455.110138 C 106.12825 455.110138 5.424492 354.406372 5.424492 230.182007 C 5.424492 105.957672 106.12825 5.253906 230.3526 5.253906 C 354.576965 5.253906 455.280701 105.957672 455.280701 230.182007 Z"/>
    </g>
    <g id="g1">
        <g id="g2">
            <path id="path1" fill="none" stroke="#ffffff" stroke-width="31.249989" stroke-linejoin="round" d="M 223.016479 85.534821 L 81.898529 226.750366 C 81.898529 226.750366 33.336662 274.199829 86.190475 328.416687 C 139.235214 382.824341 187.845581 332.624176 187.845581 332.624176 L 328.963531 191.40863"/>
        </g>
        <g id="g3">
            <path id="path2" fill="none" stroke="#ffffff" stroke-width="31.249998" stroke-linejoin="round" d="M 237.14386 374.851501 L 377.717194 233.09375 C 377.717194 233.09375 426.096069 185.457672 373.033905 131.444672 C 319.780121 77.241608 271.363342 127.62851 271.363342 127.62851 L 130.790009 269.386322"/>
        </g>
    </g>
</svg>
