<svg xmlns="http://www.w3.org/2000/svg" viewBox="0 0 496.8 489.9"><path fill="#6d0087" d="M123.7 373.3c17-17.8 38.6-35.9 64.7-33.3 26.4 2.5 52.7-2 79-3.3 8.1-.6 22.1-2.4 27.8 4.6 1.4 3 .3 7-3 8.2-19.6 7.2-38.3 16.6-58.6 21.3-7.7 1.5-16 2.4-22.8 6.7-3.7 2.4-.5 7.7 3.5 5.9 8.8-4.1 18.4-5 27.8-7.5 15.9-2.1 31.5 1.5 47.1 4 17.4 2.4 34.4 1.1 51.8-.7 8.3-.8 14.7-6.8 19.6-12.1 13.6-11.7 37.8-37.2 57-25.1-20.5 17.5-40.6 35.5-60.8 53.3-5.1 4.5-10 8.2-16.6 10-61.9 13.4-133.7 1.9-189 38.2-16.4 12.2-29 28.8-46.1 40.2-3.5 2.3-.3 8 3.3 5.7 19.6-13 33.4-33.2 53.6-45.3 55-28.7 119.3-20 178.3-32.1 11.3-2.7 18.6-10.3 27-18 18.7-17 38.3-33 56.7-50.4a2.4 2.4 0 0 0 .8-2.5c-14-19-41.8-2.2-55.4 9.9 5.6-11 13.2-20.5 20.4-30.3 1.4-1 1.8-3.3 0-4.2a26.4 26.4 0 0 0-19.6-1c48.4-91.6-21.7-207-125.9-205.6-123-1-187.2 150.4-103 238-36.4 29-62.1 69.3-102.9 92.8-4 2.4-.3 8.5 3.7 6.2 32-18.7 56.2-47.3 81.6-73.6zm259-52.2c-9.1 10.1-15.7 22-21.7 34a43.7 43.7 0 0 1-15 16.5c-4 2-8.8 2-13.2 2.4 12.2-21 20-54.5 49.8-52.9zm-221.8-122c12.1-20.9 33.2-31.4 47-23.4 32.4 20.8-9.7 93.5-43.8 75.9-13.8-8-15.3-31.5-3.2-52.4z"/><path fill="#d69800" d="m290.4 65.8 19.2 4.9a17.2 17.2 0 0 1 12.8 15l3 31.2c.3 4.2 6.5 4.6 7.3.4l5.8-28.8A17.3 17.3 0 0 1 352.6 75l20.8-3.3c4-.6 4.2-6.5.2-7.3l-19.1-4.2A17.2 17.2 0 0 1 341 45.3l-2.8-23.6c-.4-3.9-6.1-4.4-7.2-.6l-6.8 22.3a17.3 17.3 0 0 1-13.8 12l-19.8 3.1c-3.9.6-4.2 6.4-.3 7.3zm21.3-3c12.2-2.1 18.7-11 21.3-22.5.5 13.1 6.4 23.8 19.9 27-12.6 1.5-21.1 11.4-22.5 23.7-.3-14-6.2-24.6-20.5-28zM37.6 280l7 30.7c.8 4 7 3.6 7.3-.6l2-29.3A17.3 17.3 0 0 1 66 265.5l20.2-6c3.8-1.1 3.3-7-.8-7.3L66 250.5a17.2 17.2 0 0 1-15.2-13l-5.8-23c-.9-3.7-6.7-3.6-7.3.4l-3.8 23a17.3 17.3 0 0 1-12 13.7l-19.3 5.6c-3.8 1.1-3.3 6.9.6 7.3l19.7 2.3a17.2 17.2 0 0 1 14.7 13.3zm-15.4-20.8c12.6-3 19-13 20-25.5 2.2 13 9.4 22.8 23.2 24.2-12.3 3-19.4 14-19.2 26.4-2.1-13.9-9.4-23.6-24-25zM110.6 114.2C89 92.8 68 70.6 45.6 50c-3.2-3-7.8 1.6-4.8 4.8 20.8 22.2 43 43.1 64.6 64.6 3.4 3.3 8.6-1.9 5.2-5.2zM149.5 62.4c-1.8-2.3-5-.2-5.2 2.2-.5 5.4 2.8 11.8 4.7 16.8 2 5.4 4 11.2 7.1 16.2 2.2 3.5 8.5 1.3 7-3-2-5.7-5-11.2-7.1-17-2-5-3-11-6.5-15.2zM46.3 150.5c-3-1-5.2 3.9-2.2 5.2 12.4 5.3 25.1 10 37.7 14.9 4.2 1.6 6-5.1 1.9-6.7-12.5-4.5-24.9-9.2-37.4-13.4zM89.9 322.1c-6.3 3.6-11.9 8.9-17.5 13.3l-8.7 6.7c-2.6 2-5.7 3.5-6.1 7a2.2 2.2 0 0 0 2 2.7c3.4.4 5-1.7 7.6-3.6l9.5-7.2c5.7-4.4 12.3-8.5 17.3-13.6a3.4 3.4 0 0 0-4.1-5.3zM236.3 18.9c0-5.4 1.8-12.8-.8-17.7a2.6 2.6 0 0 0-4.5 0c-2.8 4.5-1.7 11.7-1.8 16.8l-.4 19v18.2c.1 6-1 13.4 1 19a3 3 0 0 0 6 0c1.6-5.5.4-12.4.3-18q-.2-18.7.2-37.3zM374 116.4c19-20.5 37.8-41.2 59-59.6 3.3-3-1.7-8-5-5a520.9 520.9 0 0 0-59 60.9c-2 2.8 2.6 6.2 5 3.7zM446.6 149.6c4.2-1.5 2.4-8.2-1.8-6.7a756.6 756.6 0 0 0-33.9 13.2c-3.2 1.3-7 2.3-9.3 4.9a2.5 2.5 0 0 0 1.8 4.3c3.6.1 6.9-1.8 10.1-3.1 11-4.4 22-8.6 33.1-12.6zM494.4 240.8c3.1-.6 3.2-5.8 0-6.4-5.3-1-11-.3-16.4-.5-13.5-.3-27-.9-40.4-1.6-5.5-.3-11.5-1.5-17-1a3.4 3.4 0 0 0-3.3 4.2c.6 4.4 15.3 3.2 19 3.8 13.7.9 27.4 1.4 41 1.7 5.5.1 11.7.9 17-.2zM433.2 311.1c-2.8-1.6-5.7-3.1-8.4-4.9-2.5-1.6-4.1-4-7-4.8a2.6 2.6 0 0 0-3.2 2.5c-.4 6 8.4 9.6 12.7 12.1 6.6 4 13.3 9 20.5 11.5 3 1.2 5.7-3.4 3.2-5.5-5.2-4.4-12-7.4-17.8-10.9z"/><path fill="#6d0087" d="M15.4 144.5c-1 5.3 6.8 6.8 8 1.6 1-5.3-7-6.8-8-1.6z"/><path fill="#d69800" d="M43.7 366.6c1-5.3-6.9-6.9-8-1.6-1 5.3 6.9 6.8 8 1.6zM132.8 39.7c-1 5.3 6.8 6.8 8 1.6 1-5.3-6.9-6.8-8-1.6zM473.2 139.3c1-5.3-6.9-6.9-8-1.6-1 5.2 6.9 6.8 8 1.6zM472.7 337.2c1-5.2-6.8-6.8-8-1.5-1 5.2 7 6.8 8 1.5z"/></svg>