<svg xmlns="http://www.w3.org/2000/svg" version="1.0" viewBox="0 0 700 700"><path d="M76.5.6 69 2.1A88.2 88.2 0 0 0 3.2 64L.5 72.5.3 348 .2 623.5l2.4 9.4a83.7 83.7 0 0 0 21.8 39.9 89.9 89.9 0 0 0 39.2 23.9l8.9 2.8h554l7.9-2.3a89.8 89.8 0 0 0 54.3-41.7 95.5 95.5 0 0 0 8.1-19.5l2.7-8.5V353c0-151-.3-276.8-.7-279.5a86.3 86.3 0 0 0-25.9-48.9 88 88 0 0 0-43.8-23.3C626.5.5 80.2-.1 76.5.6zm105.9 109.8c5.5.3 11.9.8 14.3 1.1l9.1 1.1a442.8 442.8 0 0 1 36.2 5.8c11.9 1.8 68.5 18.6 72.5 21.5a731.3 731.3 0 0 1 52.2 25A445.8 445.8 0 0 1 533.3 330a681.5 681.5 0 0 1 25.8 53.5 475.6 475.6 0 0 1 21.1 68l1.4 6 .9 4.5 1 6 1 5 1 6.5 1 8a389 389 0 0 1 3 29.7c1.3 16.4 1.2 34.4-.2 39.9a43.4 43.4 0 0 1-71.7 21.8c-10.5-9.6-14.2-19-14.5-37.4a279.2 279.2 0 0 0-2.6-37.5c-.3-3-.8-6.2-1-7-.2-.8-.7-4-1-7-.4-3-.8-5.7-1-6a363.6 363.6 0 0 0-21.4-72 368.3 368.3 0 0 0-50.3-84.6c-29.2-34.7-57-59-91.3-79.8-13.3-8.1-48.3-25.6-51.2-25.6a398.6 398.6 0 0 0-43.8-14.4 214.4 214.4 0 0 0-21-4.5 326 326 0 0 1-7.5-1.5l-7-1.1-6.5-.9a384.5 384.5 0 0 0-38.8-2.6c-17.5-.4-26.1-3.4-35.7-12.6a43.7 43.7 0 0 1 22.5-74.3c4.5-.8 21.8-.6 36.9.3zm-4.5 175.1c8.3.7 28.2 4 34.6 5.7l6 1.4c4.5.9 25.5 7.8 33.5 11.1a285.5 285.5 0 0 1 58.5 33 341 341 0 0 1 41.5 38.8 286.8 286.8 0 0 1 26 36 322.5 322.5 0 0 1 16.5 32c1.8 4.3 8.5 22.3 8.9 24 .2.5.5 1.7.9 2.5.6 1.7 3.7 13.3 4.2 15.8l1.9 9.4c5.2 24.9 6.6 54.5 3.1 64.8a44.8 44.8 0 0 1-30 29c-7.2 2-18.9 1.7-25.7-.8a46 46 0 0 1-23.3-18.7c-5-8.4-5.8-12.5-7-35a188 188 0 0 0-4-28 202.5 202.5 0 0 0-28.9-62.7c-1.2-1.4-3.2-4.1-4.6-6a280.3 280.3 0 0 0-30-29.5 174 174 0 0 0-95-35.8c-25.9-1.4-31-2.9-41.6-12.5a42 42 0 0 1-13.7-31.6c0-11.9 3.8-21.8 11.7-30.3a46.9 46.9 0 0 1 26.1-13.3 256 256 0 0 1 30.4.7zm9.6 175a67.4 67.4 0 0 1 48.1 39.6 65.4 65.4 0 1 1-71.3-39.8 23 23 0 0 0 4.5-.8c.5-.5 14.5.3 18.7 1z"/></svg>