<svg xmlns="http://www.w3.org/2000/svg" viewBox="0 0 640 640"><path d="M112 304v160h40v-56c0-13.3 10.7-24 24-24s24 10.7 24 24v56h48v-56c0-13.3 10.7-24 24-24s24 10.7 24 24v56h48v-56c0-13.3 10.7-24 24-24s24 10.7 24 24v56h48v-56c0-13.3 10.7-24 24-24s24 10.7 24 24v56h40V304h-40c-13.3 0-24-10.7-24-24v-40h-40c-13.3 0-24-10.7-24-24v-40H240v40c0 13.3-10.7 24-24 24h-40v40c0 13.3-10.7 24-24 24z" opacity=".4"/><path d="M192 160c0-17.7 14.3-32 32-32h192c17.7 0 32 14.3 32 32v32h32c17.7 0 32 14.3 32 32v32h32c17.7 0 32 14.3 32 32v192c0 17.7-14.3 32-32 32H96c-17.7 0-32-14.3-32-32V288c0-17.7 14.3-32 32-32h32v-32c0-17.7 14.3-32 32-32h32zm48 16v40c0 13.3-10.7 24-24 24h-40v40c0 13.3-10.7 24-24 24h-40v160h40v-56c0-13.3 10.7-24 24-24s24 10.7 24 24v56h48v-56c0-13.3 10.7-24 24-24s24 10.7 24 24v56h48v-56c0-13.3 10.7-24 24-24s24 10.7 24 24v56h48v-56c0-13.3 10.7-24 24-24s24 10.7 24 24v56h40V304h-40c-13.3 0-24-10.7-24-24v-40h-40c-13.3 0-24-10.7-24-24v-40z"/></svg>