<svg xmlns="http://www.w3.org/2000/svg" width="92" height="92"><path d="M17.54 17.54a40.24 40.24 0 0 0 0 56.92 2.88 2.88 0 0 1-4.07 4.07 46 46 0 0 1 0-65.06 2.88 2.88 0 0 1 4.07 4.07m12.2 12.2a23 23 0 0 0 0 32.52 2.88 2.88 0 1 1-4.07 4.07 28.75 28.75 0 0 1 0-40.66 2.88 2.88 0 1 1 4.07 4.07m32.52-4.07a2.88 2.88 0 0 1 4.07 0 28.75 28.75 0 0 1 0 40.66 2.88 2.88 0 1 1-4.07-4.07 23 23 0 0 0 0-32.52 2.86 2.86 0 0 1 0-4.07m12.2-12.2a2.88 2.88 0 0 1 4.07 0 46 46 0 0 1 0 65.06 2.88 2.88 0 0 1-4.07-4.07 40.24 40.24 0 0 0 0-56.92 2.88 2.88 0 0 1 0-4.07ZM34.5 46a11.5 11.5 0 1 1 14.38 11.14v31.98a2.88 2.88 0 0 1-5.76 0V57.14A11.5 11.5 0 0 1 34.5 46" style="stroke:none;fill-rule:nonzero;fill:#000;fill-opacity:1"/></svg>